<svg xmlns="http://www.w3.org/2000/svg" width="180" height="180" viewBox="0 0 180 180">
  <!-- Rounded rectangle background (iOS style) -->
  <rect x="10" y="10" width="160" height="160" rx="35" ry="35" fill="#4a5568"/>
  
  <!-- Phone/tablet frame -->
  <rect x="45" y="35" width="90" height="110" rx="8" ry="8" fill="none" stroke="#ffffff" stroke-width="3"/>
  
  <!-- Feed lines with dots -->
  <g fill="#ffffff">
    <!-- First post -->
    <circle cx="58" cy="55" r="2.5"/>
    <rect x="65" y="51" width="55" height="3" rx="1.5"/>
    <rect x="65" y="57" width="35" height="2" rx="1"/>
    
    <!-- Second post -->
    <circle cx="58" cy="70" r="2.5"/>
    <rect x="65" y="66" width="60" height="3" rx="1.5"/>
    <rect x="65" y="72" width="30" height="2" rx="1"/>
    
    <!-- Third post -->
    <circle cx="58" cy="85" r="2.5"/>
    <rect x="65" y="81" width="50" height="3" rx="1.5"/>
    <rect x="65" y="87" width="40" height="2" rx="1"/>
    
    <!-- Fourth post -->
    <circle cx="58" cy="100" r="2.5"/>
    <rect x="65" y="96" width="58" height="3" rx="1.5"/>
    <rect x="65" y="102" width="32" height="2" rx="1"/>
    
    <!-- Fifth post -->
    <circle cx="58" cy="115" r="2.5"/>
    <rect x="65" y="111" width="48" height="3" rx="1.5"/>
    <rect x="65" y="117" width="38" height="2" rx="1"/>
    
    <!-- Sixth post -->
    <circle cx="58" cy="130" r="2.5"/>
    <rect x="65" y="126" width="55" height="3" rx="1.5"/>
    <rect x="65" y="132" width="28" height="2" rx="1"/>
  </g>
</svg>