<svg xmlns="http://www.w3.org/2000/svg" width="512" height="512" viewBox="0 0 512 512">
  <!-- Full background (extends to edges for maskable) -->
  <rect x="0" y="0" width="512" height="512" fill="#4a5568"/>
  
  <!-- Safe zone content (80% of size, centered) -->
  <g transform="translate(256, 256) scale(0.8)">
    <!-- Phone/tablet frame -->
    <rect x="-110" y="-160" width="220" height="320" rx="20" ry="20" fill="none" stroke="#ffffff" stroke-width="8"/>
    
    <!-- Feed lines with dots -->
    <g fill="#ffffff">
      <!-- First post -->
      <circle cx="-80" y="-116" r="6"/>
      <rect x="-60" y="-124" width="130" height="8" rx="4"/>
      <rect x="-60" y="-112" width="90" height="6" rx="3"/>
      
      <!-- Second post -->
      <circle cx="-80" cy="-76" r="6"/>
      <rect x="-60" y="-84" width="140" height="8" rx="4"/>
      <rect x="-60" y="-72" width="80" height="6" rx="3"/>
      
      <!-- Third post -->
      <circle cx="-80" cy="-36" r="6"/>
      <rect x="-60" y="-44" width="125" height="8" rx="4"/>
      <rect x="-60" y="-32" width="100" height="6" rx="3"/>
      
      <!-- Fourth post -->
      <circle cx="-80" cy="4" r="6"/>
      <rect x="-60" y="-4" width="135" height="8" rx="4"/>
      <rect x="-60" y="8" width="85" height="6" rx="3"/>
      
      <!-- Fifth post -->
      <circle cx="-80" cy="44" r="6"/>
      <rect x="-60" y="36" width="120" height="8" rx="4"/>
      <rect x="-60" y="48" width="95" height="6" rx="3"/>
      
      <!-- Sixth post -->
      <circle cx="-80" cy="84" r="6"/>
      <rect x="-60" y="76" width="145" height="8" rx="4"/>
      <rect x="-60" y="88" width="75" height="6" rx="3"/>
      
      <!-- Seventh post -->
      <circle cx="-80" cy="124" r="6"/>
      <rect x="-60" y="116" width="115" height="8" rx="4"/>
      <rect x="-60" y="128" width="105" height="6" rx="3"/>
    </g>
  </g>
</svg>