<svg xmlns="http://www.w3.org/2000/svg" width="512" height="512" viewBox="0 0 512 512">
  <!-- Background circle -->
  <circle cx="256" cy="256" r="234" fill="#4a5568"/>
     
  <!-- Phone/tablet frame -->
  <rect x="149" y="96" width="214" height="320" rx="21" ry="21" fill="none" stroke="#ffffff" stroke-width="8"/>
     
  <!-- Feed lines with dots -->
  <g fill="#ffffff">
    <!-- First post -->
    <circle cx="181" cy="160" r="5"/>
    <rect x="203" y="149" width="128" height="8" rx="4"/>
    <rect x="203" y="165" width="85" height="5" rx="2.5"/>
         
    <!-- Second post -->
    <circle cx="181" cy="213" r="5"/>
    <rect x="203" y="202" width="139" height="8" rx="4"/>
    <rect x="203" y="218" width="75" height="5" rx="2.5"/>
         
    <!-- Third post -->
    <circle cx="181" cy="266" r="5"/>
    <rect x="203" y="255" width="123" height="8" rx="4"/>
    <rect x="203" y="271" width="96" height="5" rx="2.5"/>
         
    <!-- Fourth post -->
    <circle cx="181" cy="319" r="5"/>
    <rect x="203" y="308" width="133" height="8" rx="4"/>
    <rect x="203" y="324" width="80" height="5" rx="2.5"/>
         
    <!-- Fifth post -->
    <circle cx="181" cy="372" r="5"/>
    <rect x="203" y="361" width="117" height="8" rx="4"/>
    <rect x="203" y="377" width="91" height="5" rx="2.5"/>
  </g>
</svg>